<?xml version="1.0" encoding="utf-8"?>
<!-- Generator: Adobe Illustrator 24.2.1, SVG Export Plug-In . SVG Version: 6.00 Build 0)  -->
<svg version="1.1" id="Layer_2" xmlns="http://www.w3.org/2000/svg" xmlns:xlink="http://www.w3.org/1999/xlink" x="0px" y="0px"
	 viewBox="0 0 1210 1280" style="enable-background:new 0 0 1210 1280;" xml:space="preserve">
<style type="text/css">
	.st0{fill:#FFFFFF;}
	.st1{fill:none;}
	.st2{font-family:'LeckerliOne-Regular';}
	.st3{font-size:30px;}
	.st4{font-family:'CenturyGothic';}
	.st5{font-size:20px;}
</style>
<g transform="translate(0.000000,1280.000000) scale(0.100000,-0.100000)">
	<path class="st0" d="M6282.1,6757.3c10.5-10.7,19.1-21,24.4-29c3.1-4.7,4.6-8.8,8.6-22.3c1.6-5.3,2.9-9.8,3.1-10
		c0.1-0.2,2.9,0.3,6.2,1c5.2,1,7.2,1.2,15.5,0.9c5.2-0.2,10.5-0.5,11.8-0.7l2.4-0.3l1.3,5.6c3.9,16.1,7,22.6,20.9,43.7
		c6.1,9.2,11.1,16.9,11.2,17c0.1,0.1,0.3,0.1,0.4,0c0.5-0.5,1.5-13.7,2.4-31.1c1.4-28.5,2.9-44.9,4.7-51.3
		c1.2-4.3,1.7-14.9,0.9-17.3c-0.5-1.4-0.5-2.1,0.2-3.1c1-1.6,1.7-5.6,1.2-7.5c-0.2-0.7-1-2.2-1.7-3.1c-1.3-1.5-1.6-3.1-3.2-15.5
		c-2.3-18-3.7-26.2-5.6-34.2l-1.7-6.6l1.1-3.5c0.9-2.7,1.3-6.4,1.7-15.3c0.3-6.5,0.3-12.7,0.2-13.7c-0.5-2.4-2.2-3.6-5.4-3.6
		c-4.1,0-10.1-1.5-13.1-3.3c-2.4-1.4-3.4-1.6-7.2-1.6h-4.4l-1-2.6c-0.5-1.4-2.4-5.2-4.1-8.5c-2.2-4.2-3.5-7.5-4.3-11.1
		c-1.3-6-2.2-21.1-2.2-36.6c0-11.7-0.6-15.4-3.6-21.3c-1-1.8-1.1-2.5-0.6-4c0.9-2.3,1.9-15.8,1.4-18.3c-0.2-1-0.7-2.3-1.1-2.8
		c-1.5-1.8-2.1-4.6-2.9-14.4c-1.9-23-4.4-37.4-8-46.7c-3.4-8.5-9-21-15.8-34.9c-8.4-17.1-14.9-34.9-21.5-58.6
		c-1.1-4-5.3-16-9.3-26.7c-8.1-21.6-9.7-26.4-13-39.5c-3.2-12.8-4.3-17.6-6.9-32.8c-5.2-29.5-5.2-29.5-5.2-44.9
		c0-16.4,0.7-27.5,2.1-30.2c1.4-3.1,5.5-5.4,14.1-8.3c4.5-1.5,6.1-3.3,8.1-9.2c0.7-2,2.1-5,3.3-6.6c6.6-9.7,7-10.3,7-12.2
		c0-2.2-1.5-4.4-4.3-6.1c-1.1-0.7-2-1.6-2-2c0-1.8-2.1-2.6-7.4-3.1c-2.9-0.2-5.4-0.6-5.6-0.8c-0.1-0.3,0.5-0.9,1.3-1.5
		s2.8-2.2,4.3-3.7c1.6-1.6,3.2-2.8,3.6-2.8c1.6,0,3.5-3.5,3.6-6.6c0-2.1,0.6-4.1,2.4-7.9c4-8.3,4.1-7.8-2.6-14.2
		c-6.8-6.6-7.4-6.9-17.7-7.4c-5.6-0.3-8-0.2-10.8,0.6c-2,0.5-5.8,1-8.5,1.2c-6.9,0.5-20.2,4.4-20.2,6c0,0.2-0.8,0.9-1.7,1.4
		c-1.7,1-4.6,6-4.6,8c0,0.5-0.8,1.6-1.7,2.5c-3.2,3-3.5,5.4-4,28.6c-0.3,12.5-0.8,22.1-1.2,23.7c-0.6,2.6-3.6,6.2-5.2,6.2
		c-0.3,0-1.8,1.1-3.3,2.4c-1.5,1.4-3.6,2.8-4.7,3.1c-2,0.6-2,0.6-2,4c0.1,1.9,0.3,11,0.7,20.2c1.3,32.1,1.1,38.3-3.1,81.8
		c-1.1,11.4-2.5,27.5-3.2,35.7c-2,26.1-3.1,34.2-5.8,41.8c-1.4,4.1-2.3,7.7-2.3,9.4c0,4.2-1.1,7.9-2.5,8.5c-0.7,0.3-5,1.4-9.6,2.5
		c-10.1,2.5-16.2,4.4-21.9,6.9c-2.4,1-6.2,2.3-8.5,2.8c-7.2,1.6-13.2,4.3-21.7,10c-8.6,5.8-20,11.6-30.8,15.8
		c-29.8,11.6-72,21.7-92.2,21.9l-6.6,0.1l-9.2-4.3c-16.9-7.9-22.1-12.2-39.6-33.2c-10.5-12.6-12.2-14.2-24.9-24.6
		c-14-11.5-22.8-17.3-30.4-20c-5.9-2.1-14.6-6.3-23.4-11.1c-3.7-2-10.9-5.5-16.1-7.8c-22.9-10.1-31.6-14.5-37.2-19
		c-8.5-6.8-15.1-16.8-17.7-26.8c-2.6-10.4-3.7-30.5-2-35.8c1.3-3.8,5.3-9.3,9.4-12.9c4.1-3.6,5.5-5.6,6.4-9.7
		c1.4-6.6-3.1-20.5-7.7-23.9c-1.6-1.2-2.4-1.2-13-1.2c-10.8,0-11.5,0.1-13.9,1.3c-3.6,2-7.3,6-9.3,10.4c-1,2.1-2.7,4.8-3.7,6
		c-3,3.4-6.1,8.3-7.2,11.5l-1,2.9l1.6,3.6c3.6,8.1,6,25.6,5,36.8l-0.5,4.4l-2.2-1.7c-3-2.4-7.3-8.1-9.3-12.4c-0.9-2-2-5.8-2.5-8.6
		c-0.5-2.8-1.8-9.7-2.8-15.4c-2.6-13.4-2.6-17.9-0.2-22.7c1.9-3.9,8.5-11.3,12.4-14c1.5-1.1,2.5-2.2,2.5-2.9c0-0.6,0.8-4.3,1.8-8.2
		c1.7-6.9,1.7-7.1,0.9-9.9c-2.6-8.4-8.6-12.9-17.4-13c-2.4,0-5-0.4-6.3-0.9c-3.3-1.4-11.2-1.2-15.8,0.3c-5.1,1.7-10.8,4.8-13.5,7.3
		l-2.2,2l0.4,4.1l0.3,4.1l-2.3,2.2c-1.3,1.3-2.6,3.3-3,4.5c-0.7,2.4-0.3,4.9,3.6,22.1c4.5,19.5,9.2,54.2,10,73.2
		c0.7,18.1,2.1,29,3.9,31.5c0.4,0.5,5.4,3.6,11.1,6.9c21.7,12.3,32.3,19.9,42.2,29.9c21,21.2,38,44,44.7,59.7
		c2.2,5.4,6.7,19.8,14.2,46c9,31.6,8.4,30.1,20.8,48.6c3.4,5,7,10.7,8,12.6c1.8,3.7,2.4,7.5,1,8c-0.3,0.1-4.8,0.5-9.9,0.7
		c-7.3,0.4-9.8,0.7-11.9,1.7c-6.6,2.9-9.9,10-8,17.1c0.8,3,5.7,7.8,10.3,10c7.2,3.5,11.1,4.3,25.8,4.8c14.1,0.6,27.9,1.6,46,3.5
		c32.7,3.5,48.4,4.5,91.9,6.3c72.4,3,89.9,4.6,117.8,10.1c23,4.7,54.7,14.1,85.8,25.6c21.7,8.1,32.3,14.8,40.6,26.1
		c5.1,6.9,6.7,10.5,14.7,33c4.5,12.3,7.8,20.2,11.2,26.2c1.6,2.7,1.3,4.3-2.8,18.1c-4.2,14.1-5,18.7-4.6,26.4
		c0.3,6.5,1.6,11.1,4.8,18.2c1.1,2.4,2.4,6,2.9,8.1c1.2,5.2,1.7,32,0.7,45.6c-0.3,5.8-0.6,10.5-0.5,10.7
		S6278.6,6760.9,6282.1,6757.3z"/>
</g>
<rect x="570.1" y="603.6" class="st1" width="241.5" height="75.8"/>
<text transform="matrix(1 0 0 1 636.3136 674.2174)" class="st0 st2 st3">Dobermans</text>
<text transform="matrix(1 0 0 1 697.904 654.3612)" class="st0 st4 st5">all about</text>
</svg>
